<?xml version="1.0" encoding="UTF-8"?>
<!DOCTYPE svg PUBLIC "-//W3C//DTD SVG 1.1//EN" "http://www.w3.org/Graphics/SVG/1.1/DTD/svg11.dtd">
<svg xmlns="http://www.w3.org/2000/svg" version="1.1" width="500px" height="500px" style="shape-rendering:geometricPrecision; text-rendering:geometricPrecision; image-rendering:optimizeQuality; fill-rule:evenodd; clip-rule:evenodd" xmlns:xlink="http://www.w3.org/1999/xlink">
<g><path style="opacity:1" fill="#1eab69" d="M 350.5,70.5 C 350.414,71.4959 350.748,72.3292 351.5,73C 355.205,74.003 357.871,76.1697 359.5,79.5C 358.398,80.1757 357.398,80.8423 356.5,81.5C 307.054,50.9118 254.054,42.5785 197.5,56.5C 194.134,56.7878 190.8,56.9545 187.5,57C 187.167,56.6667 186.833,56.3333 186.5,56C 188.596,55.2635 190.263,54.0968 191.5,52.5C 216.865,44.972 242.865,42.472 269.5,45C 298.435,47.5905 325.435,56.0905 350.5,70.5 Z"/></g>
<g><path style="opacity:1" fill="#20ab68" d="M 191.5,52.5 C 190.263,54.0968 188.596,55.2635 186.5,56C 186.833,56.3333 187.167,56.6667 187.5,57C 190.8,56.9545 194.134,56.7878 197.5,56.5C 113.399,83.6531 64.5659,140.986 51,228.5C 50.0599,239.575 49.8932,250.575 50.5,261.5C 49.2995,256.209 48.6328,250.709 48.5,245C 49.1005,236.995 49.7672,228.995 50.5,221C 50.5067,217.742 50.0067,214.575 49,211.5C 48.7216,212.416 48.2216,213.082 47.5,213.5C 61.4964,143.673 100.496,93.1725 164.5,62C 173.196,57.935 182.196,54.7683 191.5,52.5 Z"/></g>
<g><path style="opacity:1" fill="#19ae68" d="M 233.5,61.5 C 241.606,60.2955 243.606,63.2955 239.5,70.5C 240.082,74.1551 240.582,77.8218 241,81.5C 242.735,83.3541 243.902,85.5208 244.5,88C 244.095,88.9454 243.428,89.6121 242.5,90C 239.139,90.3367 235.806,90.8367 232.5,91.5C 230.539,90.9206 229.539,89.5872 229.5,87.5C 230.894,85.3543 231.56,83.021 231.5,80.5C 229.5,80.5 227.5,80.5 225.5,80.5C 225.5,82.1667 225.5,83.8333 225.5,85.5C 226.5,85.5 227.5,85.5 228.5,85.5C 228.799,87.604 228.466,89.604 227.5,91.5C 223.212,92.4112 218.879,93.0779 214.5,93.5C 214.156,90.3799 214.823,87.5466 216.5,85C 215.886,77.7235 214.219,70.8902 211.5,64.5C 216.152,64.0019 220.819,63.6686 225.5,63.5C 225.07,66.9164 224.57,70.2498 224,73.5C 226.87,75.0746 229.037,74.4079 230.5,71.5C 228.328,68.9836 227.328,65.9836 227.5,62.5C 229.735,62.7947 231.735,62.4614 233.5,61.5 Z"/></g>
<g><path style="opacity:1" fill="#2ea36f" d="M 191.5,79.5 C 191.5,78.5 191.5,77.5 191.5,76.5C 195.64,76.6893 199.64,77.3559 203.5,78.5C 203.475,75.0396 202.808,71.7063 201.5,68.5C 199.336,69.4143 197.336,70.581 195.5,72C 193.167,72.3333 190.833,72.6667 188.5,73C 186.797,75.3319 184.797,77.1653 182.5,78.5C 183.242,76.5742 184.242,74.7409 185.5,73C 191.522,71.0589 197.522,69.2255 203.5,67.5C 204.47,71.2193 205.304,74.8859 206,78.5C 203.667,79.5 201.333,80.5 199,81.5C 197.328,77.2156 194.828,76.5489 191.5,79.5 Z"/></g>
<g><path style="opacity:1" fill="#1aad67" d="M 271.5,62.5 C 276.804,63.3839 282.137,64.0506 287.5,64.5C 288.313,72.525 289.313,80.525 290.5,88.5C 291.5,88.5 292.5,88.5 293.5,88.5C 293.162,90.854 292.662,93.1873 292,95.5C 286.598,94.127 281.098,93.127 275.5,92.5C 275.833,90.5 276.167,88.5 276.5,86.5C 277.873,86.6567 279.207,86.49 280.5,86C 278.111,84.9039 275.611,84.0706 273,83.5C 274.02,85.6193 274.354,87.9526 274,90.5C 269.879,91.4075 265.712,91.2408 261.5,90C 259.797,86.2364 260.964,83.7364 265,82.5C 267.167,78.1667 269.333,73.8333 271.5,69.5C 270.328,67.1772 270.328,64.8439 271.5,62.5 Z M 277.5,73.5 C 278.234,74.8775 278.901,76.3775 279.5,78C 278.167,78.6667 276.833,78.6667 275.5,78C 276.582,76.6703 277.249,75.1703 277.5,73.5 Z"/></g>
<g><path style="opacity:1" fill="#1bae67" d="M 169.5,78.5 C 172.082,80.9968 173.582,83.9968 174,87.5C 171.396,90.7736 168.563,91.1069 165.5,88.5C 163.998,89.0831 162.665,89.9164 161.5,91C 162.701,91.9025 163.535,93.0692 164,94.5C 168.162,90.1712 171.329,90.6712 173.5,96C 171.283,97.2684 169.283,98.7684 167.5,100.5C 168.375,104.607 170.209,105.273 173,102.5C 173,101.167 173,99.8333 173,98.5C 174.753,97.373 176.587,96.373 178.5,95.5C 180.532,97.7217 182.198,100.222 183.5,103C 177.322,108.016 170.489,112.183 163,115.5C 159.531,113.793 159.031,111.626 161.5,109C 158.787,105.076 156.453,100.909 154.5,96.5C 151.68,95.7645 149.68,94.0978 148.5,91.5C 155.36,86.9051 162.36,82.5717 169.5,78.5 Z"/></g>
<g><path style="opacity:1" fill="#19ae67" d="M 191.5,79.5 C 190.875,84.9174 192.875,88.9174 197.5,91.5C 200.473,90.1897 202.807,88.1897 204.5,85.5C 206.882,86.3507 208.882,87.684 210.5,89.5C 205.601,98.5234 198.268,101.357 188.5,98C 182.157,92.8052 180.157,86.3052 182.5,78.5C 184.797,77.1653 186.797,75.3319 188.5,73C 190.833,72.6667 193.167,72.3333 195.5,72C 197.336,70.581 199.336,69.4143 201.5,68.5C 202.808,71.7063 203.475,75.0396 203.5,78.5C 199.64,77.3559 195.64,76.6893 191.5,76.5C 191.5,77.5 191.5,78.5 191.5,79.5 Z"/></g>
<g><path style="opacity:1" fill="#1bad67" d="M 309.5,72.5 C 313.819,71.7992 317.486,72.9659 320.5,76C 323.79,76.2532 326.79,77.2532 329.5,79C 328.038,82.094 326.704,85.2606 325.5,88.5C 320.128,89.8026 317.128,87.6359 316.5,82C 313.692,81.0799 311.525,81.9133 310,84.5C 307.008,93.3392 309.841,96.3392 318.5,93.5C 320.287,95.8584 321.287,98.525 321.5,101.5C 313.864,103.794 307.031,102.461 301,97.5C 296.179,86.4628 299.012,78.1295 309.5,72.5 Z"/></g>
<g><path style="opacity:1" fill="#1aae67" d="M 342.5,85.5 C 347.687,87.9248 352.354,91.0915 356.5,95C 354.599,102.201 352.599,109.368 350.5,116.5C 353.112,119.329 352.612,121.663 349,123.5C 344.683,120.84 340.35,118.173 336,115.5C 336.003,111.493 337.837,109.66 341.5,110C 339.495,107.938 337.161,106.938 334.5,107C 335.428,107.388 336.095,108.055 336.5,109C 335.711,110.626 334.711,112.126 333.5,113.5C 329.403,111.56 325.737,109.06 322.5,106C 323.289,104.374 324.289,102.874 325.5,101.5C 326.451,102.326 327.451,102.492 328.5,102C 332.5,98.6667 336.5,95.3333 340.5,92C 340.167,91.6667 339.833,91.3333 339.5,91C 340.639,89.2196 341.639,87.3863 342.5,85.5 Z M 343.5,98.5 C 344.239,98.369 344.906,98.5357 345.5,99C 345.083,102.816 343.416,103.816 340.5,102C 341.71,100.961 342.71,99.7942 343.5,98.5 Z"/></g>
<g><path style="opacity:1" fill="#1cad67" d="M 334.5,139.5 C 335.263,141.567 336.596,143.234 338.5,144.5C 337.174,145.642 336.174,146.976 335.5,148.5C 295.328,116.036 250.662,108.203 201.5,125C 186.668,130.907 173.335,139.073 161.5,149.5C 160.103,149.205 158.603,148.871 157,148.5C 155.812,149.563 155.312,150.897 155.5,152.5C 153.784,152.371 152.117,152.038 150.5,151.5C 188.862,114.737 234.196,102.57 286.5,115C 304.124,120.31 320.124,128.477 334.5,139.5 Z"/></g>
<g><path style="opacity:1" fill="#1cad67" d="M 139.5,95.5 C 140.552,95.3505 141.552,95.5172 142.5,96C 144.31,98.6443 146.31,101.144 148.5,103.5C 145.929,107.911 143.096,108.244 140,104.5C 139.5,105 139,105.5 138.5,106C 141.5,109.667 144.5,113.333 147.5,117C 150.922,116.036 153.255,117.369 154.5,121C 151.141,124.76 147.308,127.926 143,130.5C 139.568,128.848 139.068,126.681 141.5,124C 138,119.833 134.5,115.667 131,111.5C 129.678,113.474 130.178,115.308 132.5,117C 130.759,118.62 128.925,120.12 127,121.5C 124.819,118.656 122.653,115.822 120.5,113C 126.805,107.173 133.139,101.34 139.5,95.5 Z"/></g>
<g><path style="opacity:1" fill="#21aa69" d="M 350.5,70.5 C 381.424,88.0905 406.09,112.091 424.5,142.5C 423.399,141.2 422.066,140.7 420.5,141C 420.129,142.603 419.795,144.103 419.5,145.5C 403.212,119.545 382.212,98.2121 356.5,81.5C 357.398,80.8423 358.398,80.1757 359.5,79.5C 357.871,76.1697 355.205,74.003 351.5,73C 350.748,72.3292 350.414,71.4959 350.5,70.5 Z"/></g>
<g><path style="opacity:1" fill="#1aae67" d="M 370.5,105.5 C 375.072,108.563 379.239,112.23 383,116.5C 388.573,128.969 384.74,136.636 371.5,139.5C 367.762,139.421 364.428,138.254 361.5,136C 357.984,132.651 354.651,129.151 351.5,125.5C 352.751,122.511 354.751,121.511 357.5,122.5C 360.957,118.542 364.623,114.708 368.5,111C 368.043,110.586 367.709,110.086 367.5,109.5C 368.524,108.148 369.524,106.815 370.5,105.5 Z M 374.5,118.5 C 376.484,118.484 377.484,119.484 377.5,121.5C 376.122,125.715 373.455,128.881 369.5,131C 366.835,131.762 365.335,130.929 365,128.5C 368.371,125.297 371.538,121.964 374.5,118.5 Z"/></g>
<g><path style="opacity:1" fill="#19ae67" d="M 107.5,125.5 C 114.808,128.485 122.141,131.485 129.5,134.5C 130.478,134.023 131.311,133.357 132,132.5C 133.635,133.726 135.135,135.059 136.5,136.5C 133.19,140.978 129.69,145.311 126,149.5C 124.488,148.743 123.154,147.743 122,146.5C 121.915,144.915 121.749,143.582 121.5,142.5C 119.549,144.229 118.382,146.229 118,148.5C 120.79,147.218 122.957,148.052 124.5,151C 121.667,154.5 118.833,158 116,161.5C 112.72,160.449 111.553,158.449 112.5,155.5C 109.04,148.217 104.04,142.383 97.5,138C 101.047,133.959 104.38,129.792 107.5,125.5 Z M 111.5,138.5 C 112.922,138.709 114.255,139.209 115.5,140C 113.296,142.069 111.963,141.569 111.5,138.5 Z"/></g>
<g><path style="opacity:1" fill="#1dac68" d="M 398.5,151.5 C 397.945,153.729 396.611,155.395 394.5,156.5C 392.655,154.769 390.822,153.102 389,151.5C 385.206,152.587 384.706,154.42 387.5,157C 389.225,156.591 390.892,156.758 392.5,157.5C 393.624,158.914 394.624,160.414 395.5,162C 392.925,165.379 389.758,166.879 386,166.5C 381.818,160.323 377.652,154.156 373.5,148C 375.094,144.876 377.427,144.042 380.5,145.5C 384.5,142.5 388.5,139.5 392.5,136.5C 392.291,135.914 391.957,135.414 391.5,135C 392.817,133.341 394.483,132.174 396.5,131.5C 401.528,137.715 406.194,144.215 410.5,151C 406.443,157.595 402.443,157.762 398.5,151.5 Z M 398.5,151.5 C 397.404,149.897 396.07,148.397 394.5,147C 395.931,146.535 397.097,145.701 398,144.5C 401.121,146.674 401.288,149.007 398.5,151.5 Z"/></g>
<g><path style="opacity:1" fill="#1eab68" d="M 424.5,142.5 C 448.766,181.635 458.599,224.302 454,270.5C 451.61,294.486 445.11,317.153 434.5,338.5C 432.468,339.561 431.134,341.228 430.5,343.5C 429.914,343.291 429.414,342.957 429,342.5C 429.59,339.717 430.423,336.883 431.5,334C 431.43,333.235 431.097,332.735 430.5,332.5C 455.322,277.37 455.488,222.037 431,166.5C 427.662,159.152 423.829,152.152 419.5,145.5C 419.795,144.103 420.129,142.603 420.5,141C 422.066,140.7 423.399,141.2 424.5,142.5 Z"/></g>
<g><path style="opacity:1" fill="#1bad67" d="M 90.5,153.5 C 92.5643,153.687 94.5643,154.187 96.5,155C 97.7256,156.635 99.059,158.135 100.5,159.5C 111.077,158.622 114.244,163.289 110,173.5C 107.333,178.167 104.667,182.833 102,187.5C 99.0305,186.573 97.1972,184.573 96.5,181.5C 92.8333,179.667 89.1667,177.833 85.5,176C 84.1011,175.405 82.7678,175.572 81.5,176.5C 78.4679,175.988 77.3013,174.322 78,171.5C 80.9825,164.485 85.1491,158.485 90.5,153.5 Z M 99.5,167.5 C 101.567,167.532 102.9,168.532 103.5,170.5C 103.547,172 102.881,173 101.5,173.5C 97.2894,172.444 96.6227,170.444 99.5,167.5 Z M 89.5,163.5 C 92.4872,163.948 93.4872,165.448 92.5,168C 89.0414,168.145 88.0414,166.645 89.5,163.5 Z"/></g>
<g><path style="opacity:1" fill="#1bad68" d="M 404.5,191.5 C 402.473,191.662 400.473,191.495 398.5,191C 397.115,188.848 396.115,186.515 395.5,184C 396.604,182.285 397.938,180.785 399.5,179.5C 397.83,179.751 396.33,180.418 395,181.5C 392.788,178.196 390.955,174.696 389.5,171C 396.565,169.675 403.565,167.341 410.5,164C 411.833,163.333 411.833,162.667 410.5,162C 412.167,161.167 413.833,160.333 415.5,159.5C 418.328,163.822 420.661,168.489 422.5,173.5C 419.339,176.491 416.005,179.325 412.5,182C 416.342,181.976 420.175,181.476 424,180.5C 426.869,185.07 429.369,189.903 431.5,195C 425.827,195.77 420.16,197.437 414.5,200C 411.738,202.464 408.738,204.631 405.5,206.5C 402.973,202.779 400.973,198.779 399.5,194.5C 401.145,193.304 402.811,192.304 404.5,191.5 Z M 405.5,174.5 C 403.54,176.156 401.54,177.823 399.5,179.5C 400.199,176.459 402.199,174.792 405.5,174.5 Z M 404.5,191.5 C 406.948,190.527 409.615,190.194 412.5,190.5C 410.604,191.481 408.604,192.481 406.5,193.5C 405.818,192.757 405.151,192.091 404.5,191.5 Z"/></g>
<g><path style="opacity:1" fill="#1cae68" d="M 73.5,181.5 C 75.5,181.833 77.5,182.167 79.5,182.5C 79.33,183.822 79.6634,184.989 80.5,186C 84.7205,187.361 88.8872,188.861 93,190.5C 95.6776,188.552 98.5109,188.718 101.5,191C 99.8577,195.597 98.0244,200.097 96,204.5C 94.1839,203.671 92.3506,202.837 90.5,202C 91.7112,201.107 91.7112,200.274 90.5,199.5C 85.9447,197.927 81.4447,196.26 77,194.5C 74.8265,196.64 72.3265,196.974 69.5,195.5C 70.8333,190.833 72.1667,186.167 73.5,181.5 Z"/></g>
<g><path style="opacity:1" fill="#21aa69" d="M 161.5,149.5 C 135.953,172.593 120.953,201.26 116.5,235.5C 116.664,232.813 116.497,230.146 116,227.5C 114.989,228.337 113.822,228.67 112.5,228.5C 111.767,240.152 111.434,251.819 111.5,263.5C 107.381,220.191 120.381,182.858 150.5,151.5C 152.117,152.038 153.784,152.371 155.5,152.5C 155.312,150.897 155.812,149.563 157,148.5C 158.603,148.871 160.103,149.205 161.5,149.5 Z"/></g>
<g><path style="opacity:1" fill="#1eab68" d="M 334.5,139.5 C 373.86,171.249 391.693,212.582 388,263.5C 387.569,269.777 386.402,275.777 384.5,281.5C 385.864,271.73 386.531,261.897 386.5,252C 386.558,245.114 386.058,238.281 385,231.5C 383.742,243.804 382.742,256.138 382,268.5C 381.617,269.056 381.117,269.389 380.5,269.5C 386.2,221.248 371.2,180.914 335.5,148.5C 336.174,146.976 337.174,145.642 338.5,144.5C 336.596,143.234 335.263,141.567 334.5,139.5 Z"/></g>
<g><path style="opacity:1" fill="#0d6f44" d="M 217.5,196.5 C 214.167,196.167 210.833,195.833 207.5,195.5C 208.087,200.072 210.754,202.072 215.5,201.5C 215.5,202.5 215.5,203.5 215.5,204.5C 217.199,204.34 218.866,204.506 220.5,205C 219.978,205.561 219.645,206.228 219.5,207C 220.317,208.49 221.15,209.99 222,211.5C 225.82,214.41 229.653,217.41 233.5,220.5C 234.386,221.325 234.719,222.325 234.5,223.5C 230.876,221.049 227.376,218.383 224,215.5C 223.833,215.833 223.667,216.167 223.5,216.5C 228.6,220.595 232.934,225.262 236.5,230.5C 235.07,230.579 233.736,230.246 232.5,229.5C 230.983,227.815 229.316,226.315 227.5,225C 225.393,223.736 224.393,221.903 224.5,219.5C 222.784,219.371 221.117,219.038 219.5,218.5C 216.965,217.651 214.465,216.651 212,215.5C 210.699,217.155 209.199,218.489 207.5,219.5C 208.358,216.95 209.358,214.45 210.5,212C 203.667,205.833 196.833,199.667 190,193.5C 188.5,188.333 190.333,186.5 195.5,188C 203.05,190.567 210.384,193.4 217.5,196.5 Z"/></g>
<g><path style="opacity:1" fill="#0b7440" d="M 217.5,196.5 C 217.833,196.5 218.167,196.5 218.5,196.5C 219.548,200.093 221.715,201.76 225,201.5C 227.425,203.225 229.925,203.891 232.5,203.5C 232.709,204.086 233.043,204.586 233.5,205C 231.697,205.637 230.364,206.803 229.5,208.5C 232.035,209.503 234.202,208.837 236,206.5C 238.789,206.62 241.622,206.953 244.5,207.5C 245.168,210.685 246.502,213.518 248.5,216C 247.167,216.667 246.167,217.667 245.5,219C 246.833,220 246.833,221 245.5,222C 248.145,224.323 250.812,226.656 253.5,229C 257.359,229.973 260.692,229.14 263.5,226.5C 273.997,232.734 284.497,239.067 295,245.5C 295.497,247.81 295.663,250.143 295.5,252.5C 294.5,252.5 293.5,252.5 292.5,252.5C 291.407,258.901 289.407,264.901 286.5,270.5C 286.29,265.109 287.123,260.109 289,255.5C 286.063,251.373 282.23,248.706 277.5,247.5C 264.851,243.336 252.184,239.17 239.5,235C 236.523,232.881 236.856,231.714 240.5,231.5C 257.677,236.932 275.01,241.932 292.5,246.5C 293.696,246.154 293.696,245.654 292.5,245C 284.317,243.235 276.65,240.235 269.5,236C 258.913,234.944 248.58,232.277 238.5,228C 237.267,226.333 235.933,224.833 234.5,223.5C 234.719,222.325 234.386,221.325 233.5,220.5C 229.653,217.41 225.82,214.41 222,211.5C 221.15,209.99 220.317,208.49 219.5,207C 219.645,206.228 219.978,205.561 220.5,205C 218.866,204.506 217.199,204.34 215.5,204.5C 215.5,203.5 215.5,202.5 215.5,201.5C 210.754,202.072 208.087,200.072 207.5,195.5C 210.833,195.833 214.167,196.167 217.5,196.5 Z"/></g>
<g><path style="opacity:1" fill="#1aae68" d="M 427.5,203.5 C 429.5,203.5 431.5,203.5 433.5,203.5C 433.95,208.202 434.617,212.868 435.5,217.5C 433.061,218.053 430.727,218.053 428.5,217.5C 423.906,219.092 423.74,220.426 428,221.5C 430.724,220.313 433.557,219.647 436.5,219.5C 436.833,223.5 437.167,227.5 437.5,231.5C 430.786,229.594 424.12,227.261 417.5,224.5C 415.695,225.472 414.028,226.639 412.5,228C 411.167,228.667 409.833,228.667 408.5,228C 407.139,223.638 406.472,219.138 406.5,214.5C 409.144,214.16 411.477,214.827 413.5,216.5C 419.576,213.415 424.243,209.082 427.5,203.5 Z"/></g>
<g><path style="opacity:1" fill="#096241" d="M 234.5,223.5 C 235.933,224.833 237.267,226.333 238.5,228C 248.58,232.277 258.913,234.944 269.5,236C 276.65,240.235 284.317,243.235 292.5,245C 293.696,245.654 293.696,246.154 292.5,246.5C 275.01,241.932 257.677,236.932 240.5,231.5C 236.856,231.714 236.523,232.881 239.5,235C 252.184,239.17 264.851,243.336 277.5,247.5C 275.05,247.702 272.717,247.369 270.5,246.5C 262.711,243.79 254.377,241.457 245.5,239.5C 243.436,238.132 241.102,237.132 238.5,236.5C 233.416,232.072 228.083,228.072 222.5,224.5C 221.473,222.447 220.473,220.447 219.5,218.5C 221.117,219.038 222.784,219.371 224.5,219.5C 224.393,221.903 225.393,223.736 227.5,225C 229.316,226.315 230.983,227.815 232.5,229.5C 233.736,230.246 235.07,230.579 236.5,230.5C 232.934,225.262 228.6,220.595 223.5,216.5C 223.667,216.167 223.833,215.833 224,215.5C 227.376,218.383 230.876,221.049 234.5,223.5 Z"/></g>
<g><path style="opacity:1" fill="#127240" d="M 218.5,196.5 C 235.713,202.293 253.046,207.793 270.5,213C 291.973,226.39 312.306,241.224 331.5,257.5C 330.548,259.512 328.881,260.512 326.5,260.5C 317.157,258.497 307.824,256.497 298.5,254.5C 297.89,253.609 297.557,252.609 297.5,251.5C 298.101,247.71 297.101,244.544 294.5,242C 284.661,236.246 274.661,230.746 264.5,225.5C 263.893,225.624 263.56,225.957 263.5,226.5C 260.692,229.14 257.359,229.973 253.5,229C 250.812,226.656 248.145,224.323 245.5,222C 246.833,221 246.833,220 245.5,219C 246.167,217.667 247.167,216.667 248.5,216C 246.502,213.518 245.168,210.685 244.5,207.5C 241.622,206.953 238.789,206.62 236,206.5C 234.202,208.837 232.035,209.503 229.5,208.5C 230.364,206.803 231.697,205.637 233.5,205C 233.043,204.586 232.709,204.086 232.5,203.5C 229.925,203.891 227.425,203.225 225,201.5C 221.715,201.76 219.548,200.093 218.5,196.5 Z"/></g>
<g><path style="opacity:1" fill="#e7be6c" d="M 254.5,219.5 C 259.206,218.881 261.873,220.881 262.5,225.5C 257.164,226.815 254.497,224.815 254.5,219.5 Z"/></g>
<g><path style="opacity:1" fill="#f9bc5d" d="M 202.5,230.5 C 205.974,235.131 210.307,238.964 215.5,242C 217.464,243.451 218.797,245.284 219.5,247.5C 216.37,248.572 213.704,250.406 211.5,253C 208.518,253.498 205.518,253.665 202.5,253.5C 201.127,253.657 199.793,253.49 198.5,253C 191.981,246.98 185.315,241.147 178.5,235.5C 177.269,236.651 177.269,237.817 178.5,239C 176.381,239.342 176.047,240.175 177.5,241.5C 174.928,240.719 172.928,239.219 171.5,237C 172.444,235.523 173.777,234.523 175.5,234C 172.434,227.116 174.434,222.116 181.5,219C 184.303,218.245 186.97,218.578 189.5,220C 193.708,223.713 198.041,227.213 202.5,230.5 Z"/></g>
<g><path style="opacity:1" fill="#0a753f" d="M 219.5,218.5 C 220.473,220.447 221.473,222.447 222.5,224.5C 228.083,228.072 233.416,232.072 238.5,236.5C 241.102,237.132 243.436,238.132 245.5,239.5C 244.14,242.62 243.307,245.953 243,249.5C 237.057,253.378 230.557,254.378 223.5,252.5C 226.217,252.001 228.551,250.835 230.5,249C 229.167,248.333 227.833,247.667 226.5,247C 230.899,245.03 235.565,244.197 240.5,244.5C 240.5,243.167 240.5,241.833 240.5,240.5C 234.464,240.36 228.464,240.693 222.5,241.5C 222.5,243.5 222.5,245.5 222.5,247.5C 221.5,247.5 220.5,247.5 219.5,247.5C 218.797,245.284 217.464,243.451 215.5,242C 210.307,238.964 205.974,235.131 202.5,230.5C 203.603,226.503 205.269,222.836 207.5,219.5C 209.199,218.489 210.699,217.155 212,215.5C 214.465,216.651 216.965,217.651 219.5,218.5 Z"/></g>
<g><path style="opacity:1" fill="#1bad68" d="M 76.5,203.5 C 83.6421,203.314 88.8087,206.314 92,212.5C 92.6984,219.92 92.1984,227.253 90.5,234.5C 87.0306,235.113 85.0306,233.779 84.5,230.5C 79.9411,230.289 75.4411,229.622 71,228.5C 69.5531,228.945 68.2197,229.612 67,230.5C 65.5603,229.852 64.0603,229.519 62.5,229.5C 62.7881,222.559 64.2881,215.893 67,209.5C 69.5509,206.319 72.7176,204.319 76.5,203.5 Z M 75.5,213.5 C 78.643,214.037 81.643,215.037 84.5,216.5C 85.9501,217.85 86.6168,219.516 86.5,221.5C 81.1494,220.963 75.8161,220.296 70.5,219.5C 70.7492,216.256 72.4159,214.256 75.5,213.5 Z"/></g>
<g><path style="opacity:1" fill="#c4bf6f" d="M 263.5,226.5 C 263.56,225.957 263.893,225.624 264.5,225.5C 274.661,230.746 284.661,236.246 294.5,242C 297.101,244.544 298.101,247.71 297.5,251.5C 296.833,252.833 296.167,254.167 295.5,255.5C 295.5,254.5 295.5,253.5 295.5,252.5C 295.663,250.143 295.497,247.81 295,245.5C 284.497,239.067 273.997,232.734 263.5,226.5 Z"/></g>
<g><path style="opacity:1" fill="#19ae67" d="M 50.5,261.5 C 51.8894,285.117 57.2227,307.784 66.5,329.5C 66.3778,332.77 66.8778,335.77 68,338.5C 66.1335,337.473 64.3002,336.473 62.5,335.5C 45.0133,296.274 40.0133,255.608 47.5,213.5C 48.2216,213.082 48.7216,212.416 49,211.5C 50.0067,214.575 50.5067,217.742 50.5,221C 49.7672,228.995 49.1005,236.995 48.5,245C 48.6328,250.709 49.2995,256.209 50.5,261.5 Z"/></g>
<g><path style="opacity:1" fill="#dbaa61" d="M 202.5,253.5 C 201.07,254.537 199.403,255.204 197.5,255.5C 190.534,251.19 183.867,246.523 177.5,241.5C 176.047,240.175 176.381,239.342 178.5,239C 177.269,237.817 177.269,236.651 178.5,235.5C 185.315,241.147 191.981,246.98 198.5,253C 199.793,253.49 201.127,253.657 202.5,253.5 Z"/></g>
<g><path style="opacity:1" fill="#0b743f" d="M 270.5,246.5 C 272.717,247.369 275.05,247.702 277.5,247.5C 282.23,248.706 286.063,251.373 289,255.5C 287.123,260.109 286.29,265.109 286.5,270.5C 284.321,281.928 277.654,285.595 266.5,281.5C 261.714,278.555 257.048,275.388 252.5,272C 245.721,266.954 239.388,261.454 233.5,255.5C 234.822,255.67 235.989,255.337 237,254.5C 238.067,255.191 239.234,255.691 240.5,256C 239.269,257.183 239.269,258.349 240.5,259.5C 242.605,257.657 243.772,255.324 244,252.5C 244.741,253.641 245.575,253.641 246.5,252.5C 247.95,253.85 248.617,255.516 248.5,257.5C 245.682,257.495 244.515,258.828 245,261.5C 246.13,260.886 247.463,260.886 249,261.5C 250.365,261.156 251.532,260.489 252.5,259.5C 252.993,254.817 253.326,250.151 253.5,245.5C 254.939,244.937 256.439,244.603 258,244.5C 262.05,245.956 266.217,246.623 270.5,246.5 Z"/></g>
<g><path style="opacity:1" fill="#127042" d="M 245.5,239.5 C 254.377,241.457 262.711,243.79 270.5,246.5C 266.217,246.623 262.05,245.956 258,244.5C 256.439,244.603 254.939,244.937 253.5,245.5C 253.326,250.151 252.993,254.817 252.5,259.5C 251.532,260.489 250.365,261.156 249,261.5C 247.463,260.886 246.13,260.886 245,261.5C 244.515,258.828 245.682,257.495 248.5,257.5C 248.617,255.516 247.95,253.85 246.5,252.5C 245.575,253.641 244.741,253.641 244,252.5C 243.772,255.324 242.605,257.657 240.5,259.5C 239.269,258.349 239.269,257.183 240.5,256C 239.234,255.691 238.067,255.191 237,254.5C 235.989,255.337 234.822,255.67 233.5,255.5C 224.5,257.167 219.167,262.5 217.5,271.5C 216.883,271.389 216.383,271.056 216,270.5C 215.576,277.081 216.743,283.414 219.5,289.5C 219.167,290.167 218.833,290.833 218.5,291.5C 217.185,289.684 215.685,288.017 214,286.5C 213.178,288.788 212.511,291.122 212,293.5C 206.472,285.935 204.472,277.602 206,268.5C 200.022,275.839 196.022,274.839 194,265.5C 193.729,261.699 194.896,258.366 197.5,255.5C 199.403,255.204 201.07,254.537 202.5,253.5C 205.518,253.665 208.518,253.498 211.5,253C 213.704,250.406 216.37,248.572 219.5,247.5C 220.5,247.5 221.5,247.5 222.5,247.5C 222.5,245.5 222.5,243.5 222.5,241.5C 228.464,240.693 234.464,240.36 240.5,240.5C 240.5,241.833 240.5,243.167 240.5,244.5C 235.565,244.197 230.899,245.03 226.5,247C 227.833,247.667 229.167,248.333 230.5,249C 228.551,250.835 226.217,252.001 223.5,252.5C 230.557,254.378 237.057,253.378 243,249.5C 243.307,245.953 244.14,242.62 245.5,239.5 Z"/></g>
<g><path style="opacity:1" fill="#efbd61" d="M 233.5,255.5 C 239.388,261.454 245.721,266.954 252.5,272C 257.048,275.388 261.714,278.555 266.5,281.5C 266.833,282.167 267.167,282.833 267.5,283.5C 262.58,280.806 257.58,278.306 252.5,276C 250.741,275.202 249.074,275.369 247.5,276.5C 247.977,277.478 248.643,278.311 249.5,279C 249.167,279.167 248.833,279.333 248.5,279.5C 246.768,277.717 245.268,275.717 244,273.5C 242.221,276.276 241.221,275.943 241,272.5C 239.795,271.929 238.628,271.262 237.5,270.5C 239.842,269.329 242.176,268.162 244.5,267C 240.718,264.998 237.218,262.498 234,259.5C 232.204,260.767 230.371,260.767 228.5,259.5C 226.345,260.905 224.179,262.238 222,263.5C 221.305,265.722 220.472,267.889 219.5,270C 221.07,272.059 222.403,274.226 223.5,276.5C 221.5,274.833 219.5,273.167 217.5,271.5C 219.167,262.5 224.5,257.167 233.5,255.5 Z"/></g>
<g><path style="opacity:1" fill="#1aac68" d="M 116.5,235.5 C 114.469,264.369 120.469,291.369 134.5,316.5C 134.66,318.199 134.494,319.866 134,321.5C 133.014,322.171 131.847,322.171 130.5,321.5C 119.393,303.843 113.059,284.51 111.5,263.5C 111.434,251.819 111.767,240.152 112.5,228.5C 113.822,228.67 114.989,228.337 116,227.5C 116.497,230.146 116.664,232.813 116.5,235.5 Z"/></g>
<g><path style="opacity:1" fill="#fbbd5a" d="M 267.5,283.5 C 270.81,285.146 273.477,287.48 275.5,290.5C 275.783,296.925 274.783,297.091 272.5,291C 272.833,290.667 273.167,290.333 273.5,290C 270.947,289.149 268.614,289.482 266.5,291C 267.833,291.333 269.167,291.667 270.5,292C 268.359,293.308 266.359,294.808 264.5,296.5C 263.749,295.624 263.249,294.624 263,293.5C 259.063,297.709 257.063,302.709 257,308.5C 256.617,307.944 256.117,307.611 255.5,307.5C 248.832,299.816 241.832,293.149 234.5,287.5C 230.5,284.167 226.833,280.5 223.5,276.5C 222.403,274.226 221.07,272.059 219.5,270C 220.472,267.889 221.305,265.722 222,263.5C 224.179,262.238 226.345,260.905 228.5,259.5C 230.371,260.767 232.204,260.767 234,259.5C 237.218,262.498 240.718,264.998 244.5,267C 242.176,268.162 239.842,269.329 237.5,270.5C 238.628,271.262 239.795,271.929 241,272.5C 241.221,275.943 242.221,276.276 244,273.5C 245.268,275.717 246.768,277.717 248.5,279.5C 248.833,279.333 249.167,279.167 249.5,279C 248.643,278.311 247.977,277.478 247.5,276.5C 249.074,275.369 250.741,275.202 252.5,276C 257.58,278.306 262.58,280.806 267.5,283.5 Z"/></g>
<g><path style="opacity:1" fill="#1cad68" d="M 428.5,275.5 C 426.83,275.249 425.33,274.582 424,273.5C 422.484,276.051 421.651,275.718 421.5,272.5C 418.603,272.681 415.77,272.348 413,271.5C 408.579,272.092 405.079,273.258 402.5,275C 399.968,278.702 397.635,282.535 395.5,286.5C 396.833,287.833 398.167,287.833 399.5,286.5C 402.157,281.971 406.157,280.305 411.5,281.5C 409.898,283.074 407.898,283.741 405.5,283.5C 405.167,283.5 404.833,283.5 404.5,283.5C 404.684,288.776 404.684,294.109 404.5,299.5C 402.359,298.245 401.693,296.578 402.5,294.5C 400.833,293.167 399.167,293.167 397.5,294.5C 397.782,296.987 397.782,299.653 397.5,302.5C 401.383,302.882 404.383,304.716 406.5,308C 409.099,308.769 411.599,308.602 414,307.5C 415.009,308.658 416.342,309.325 418,309.5C 420.59,309.055 423.09,308.389 425.5,307.5C 425.328,305.508 425.995,303.842 427.5,302.5C 426.833,301.833 426.167,301.167 425.5,300.5C 427.505,295.894 426.172,292.561 421.5,290.5C 422.962,289.529 424.295,289.862 425.5,291.5C 427.55,294.616 429.05,297.949 430,301.5C 431.063,299.075 432.229,296.742 433.5,294.5C 433.21,292.956 432.544,291.623 431.5,290.5C 432.415,289.672 433.081,288.672 433.5,287.5C 432.238,284.978 431.571,282.311 431.5,279.5C 437.692,290.144 436.359,299.977 427.5,309C 410.883,317.024 399.383,312.524 393,295.5C 392.042,280.459 399.042,272.126 414,270.5C 419.657,270.107 424.49,271.773 428.5,275.5 Z"/></g>
<g><path style="opacity:1" fill="#16b267" d="M 428.5,275.5 C 430.262,276.262 431.262,277.596 431.5,279.5C 431.571,282.311 432.238,284.978 433.5,287.5C 433.081,288.672 432.415,289.672 431.5,290.5C 432.544,291.623 433.21,292.956 433.5,294.5C 432.229,296.742 431.063,299.075 430,301.5C 429.05,297.949 427.55,294.616 425.5,291.5C 424.295,289.862 422.962,289.529 421.5,290.5C 426.172,292.561 427.505,295.894 425.5,300.5C 426.167,301.167 426.833,301.833 427.5,302.5C 425.995,303.842 425.328,305.508 425.5,307.5C 423.09,308.389 420.59,309.055 418,309.5C 416.342,309.325 415.009,308.658 414,307.5C 411.599,308.602 409.099,308.769 406.5,308C 404.383,304.716 401.383,302.882 397.5,302.5C 397.782,299.653 397.782,296.987 397.5,294.5C 399.167,293.167 400.833,293.167 402.5,294.5C 401.693,296.578 402.359,298.245 404.5,299.5C 406.394,302.187 407.061,302.187 406.5,299.5C 406.833,299.5 407.167,299.5 407.5,299.5C 410.793,301.93 413.96,301.597 417,298.5C 420.218,300.103 423.051,299.603 425.5,297C 424.953,296.075 424.287,295.242 423.5,294.5C 422.893,294.624 422.56,294.957 422.5,295.5C 422.167,295.5 421.833,295.5 421.5,295.5C 420.472,295.074 419.139,295.074 417.5,295.5C 417.167,295.5 416.833,295.5 416.5,295.5C 414.396,295.799 412.396,295.466 410.5,294.5C 409.167,293.5 409.167,292.5 410.5,291.5C 414.596,290.165 418.596,288.832 422.5,287.5C 423.404,286.791 423.737,285.791 423.5,284.5C 423.53,283.503 423.03,282.836 422,282.5C 421.619,283.482 420.786,284.148 419.5,284.5C 416.578,283.003 413.912,282.003 411.5,281.5C 406.157,280.305 402.157,281.971 399.5,286.5C 398.167,287.833 396.833,287.833 395.5,286.5C 397.635,282.535 399.968,278.702 402.5,275C 405.079,273.258 408.579,272.092 413,271.5C 415.77,272.348 418.603,272.681 421.5,272.5C 421.651,275.718 422.484,276.051 424,273.5C 425.33,274.582 426.83,275.249 428.5,275.5 Z"/></g>
<g><path style="opacity:1" fill="#22b06e" d="M 68.5,283.5 C 70.7423,277.202 75.0756,273.035 81.5,271C 102.743,268.995 111.577,278.495 108,299.5C 101.654,311.734 91.8209,315.568 78.5,311C 67.6939,304.407 64.3605,295.24 68.5,283.5 Z"/></g>
<g><path style="opacity:1" fill="#10b263" d="M 88.5,283.5 C 88.1667,283.5 87.8333,283.5 87.5,283.5C 86.8783,282.373 86.045,281.373 85,280.5C 82.834,282.121 80.334,282.955 77.5,283C 75.1735,286.609 74.8402,290.442 76.5,294.5C 77.7862,297.405 78.7862,300.405 79.5,303.5C 79.5472,305 78.8805,306 77.5,306.5C 75.254,302.578 72.5874,298.912 69.5,295.5C 68.5091,291.555 68.1758,287.555 68.5,283.5C 70.6089,282.609 72.6089,281.442 74.5,280C 74.1667,279.667 73.8333,279.333 73.5,279C 74.9733,278.29 75.6399,277.124 75.5,275.5C 82.5079,275.334 89.5079,275.5 96.5,276C 98.5718,278.168 100.738,280.334 103,282.5C 103.333,282.167 103.667,281.833 104,281.5C 107.188,286.714 108.188,292.38 107,298.5C 106.581,299.672 105.915,300.672 105,301.5C 104,300.167 103,300.167 102,301.5C 101.505,303.473 101.338,305.473 101.5,307.5C 97.9966,308.523 94.4966,309.523 91,310.5C 87.5152,310.508 84.3486,309.508 81.5,307.5C 82.7111,306.28 82.7111,305.113 81.5,304C 83.4025,303.801 84.9025,302.967 86,301.5C 90.7338,301.93 95.5671,301.93 100.5,301.5C 100.98,298.315 100.314,295.481 98.5,293C 99.3701,290.064 99.3701,286.897 98.5,283.5C 96.8832,282.358 95.0499,281.691 93,281.5C 91.0145,281.569 89.5145,282.235 88.5,283.5 Z"/></g>
<g><path style="opacity:0.796" fill="#2aac76" d="M 411.5,281.5 C 413.912,282.003 416.578,283.003 419.5,284.5C 420.786,284.148 421.619,283.482 422,282.5C 423.03,282.836 423.53,283.503 423.5,284.5C 422.596,285.209 422.263,286.209 422.5,287.5C 418.596,288.832 414.596,290.165 410.5,291.5C 409.167,292.5 409.167,293.5 410.5,294.5C 412.396,295.466 414.396,295.799 416.5,295.5C 416.833,296.833 417.167,296.833 417.5,295.5C 419.139,295.074 420.472,295.074 421.5,295.5C 421.833,296.833 422.167,296.833 422.5,295.5C 422.56,294.957 422.893,294.624 423.5,294.5C 424.287,295.242 424.953,296.075 425.5,297C 423.051,299.603 420.218,300.103 417,298.5C 413.96,301.597 410.793,301.93 407.5,299.5C 407.167,296.833 406.833,296.833 406.5,299.5C 407.061,302.187 406.394,302.187 404.5,299.5C 404.684,294.109 404.684,288.776 404.5,283.5C 404.833,284.833 405.167,284.833 405.5,283.5C 407.898,283.741 409.898,283.074 411.5,281.5 Z"/></g>
<g><path style="opacity:1" fill="#f2bb68" d="M 297.5,251.5 C 297.557,252.609 297.89,253.609 298.5,254.5C 298.597,259.03 298.264,263.53 297.5,268C 297.744,271.487 299.077,274.487 301.5,277C 300.829,284.685 301.495,292.352 303.5,300C 302.907,301.882 301.573,302.882 299.5,303C 296.518,303.498 293.518,303.665 290.5,303.5C 290.199,296.196 290.866,289.029 292.5,282C 290.818,277.939 291.651,274.439 295,271.5C 295.499,266.177 295.666,260.844 295.5,255.5C 296.167,254.167 296.833,252.833 297.5,251.5 Z"/></g>
<g><path style="opacity:0.894" fill="#a17033" d="M 293.5,281.5 C 295.288,280.378 297.288,280.211 299.5,281C 298.437,282.188 297.103,282.688 295.5,282.5C 295.477,287.874 294.977,293.207 294,298.5C 293.742,292.631 293.576,286.965 293.5,281.5 Z"/></g>
<g><path style="opacity:1" fill="#1dad68" d="M 384.5,281.5 C 375.409,321.242 353.076,350.909 317.5,370.5C 319.371,366.706 322.371,364.039 326.5,362.5C 326.113,361.28 325.28,360.613 324,360.5C 322.862,360.989 321.695,361.322 320.5,361.5C 353.017,339.166 373.017,308.5 380.5,269.5C 381.117,269.389 381.617,269.056 382,268.5C 382.742,256.138 383.742,243.804 385,231.5C 386.058,238.281 386.558,245.114 386.5,252C 386.531,261.897 385.864,271.73 384.5,281.5 Z"/></g>
<g><path style="opacity:1" fill="#ad8245" d="M 275.5,290.5 C 276.996,294.178 276.329,297.511 273.5,300.5C 273.5,298.5 273.5,296.5 273.5,294.5C 266.458,294.333 265.125,296.833 269.5,302C 268.937,304.251 267.603,305.251 265.5,305C 266.5,304 267.5,303 268.5,302C 267.333,300.833 266.167,299.667 265,298.5C 264.667,299.167 264.333,299.833 264,300.5C 263.716,298.114 262.716,297.448 261,298.5C 259.082,301.989 258.249,305.489 258.5,309C 260.066,309.608 261.4,310.442 262.5,311.5C 259.318,311.416 256.985,310.083 255.5,307.5C 256.117,307.611 256.617,307.944 257,308.5C 257.063,302.709 259.063,297.709 263,293.5C 263.249,294.624 263.749,295.624 264.5,296.5C 266.359,294.808 268.359,293.308 270.5,292C 269.167,291.667 267.833,291.333 266.5,291C 268.614,289.482 270.947,289.149 273.5,290C 273.167,290.333 272.833,290.667 272.5,291C 274.783,297.091 275.783,296.925 275.5,290.5 Z"/></g>
<g><path style="opacity:1" fill="#996d34" d="M 255.5,307.5 C 249.89,303.228 244.557,298.562 239.5,293.5C 237.367,291.909 235.701,289.909 234.5,287.5C 241.832,293.149 248.832,299.816 255.5,307.5 Z"/></g>
<g><path style="opacity:0.918" fill="#ebb668" d="M 273.5,300.5 C 270.833,305.167 267.167,308.833 262.5,311.5C 261.4,310.442 260.066,309.608 258.5,309C 258.249,305.489 259.082,301.989 261,298.5C 262.716,297.448 263.716,298.114 264,300.5C 264.333,299.833 264.667,299.167 265,298.5C 266.167,299.667 267.333,300.833 268.5,302C 267.5,303 266.5,304 265.5,305C 267.603,305.251 268.937,304.251 269.5,302C 265.125,296.833 266.458,294.333 273.5,294.5C 273.5,296.5 273.5,298.5 273.5,300.5 Z"/></g>
<g><path style="opacity:1" fill="#f6bd65" d="M 239.5,293.5 C 244.557,298.562 249.89,303.228 255.5,307.5C 256.985,310.083 259.318,311.416 262.5,311.5C 259.796,314.303 256.463,315.137 252.5,314C 247.521,307.532 243.188,300.699 239.5,293.5 Z"/></g>
<g><path style="opacity:1" fill="#1eab67" d="M 134.5,316.5 C 148.367,339.035 167.034,356.368 190.5,368.5C 187.279,367.495 183.946,366.661 180.5,366C 179.069,365.535 177.903,364.701 177,363.5C 175.232,364.682 175.065,366.015 176.5,367.5C 157.188,356.188 141.855,340.855 130.5,321.5C 131.847,322.171 133.014,322.171 134,321.5C 134.494,319.866 134.66,318.199 134.5,316.5 Z"/></g>
<g><path style="opacity:1" fill="#21aa69" d="M 430.5,332.5 C 431.097,332.735 431.43,333.235 431.5,334C 430.423,336.883 429.59,339.717 429,342.5C 429.414,342.957 429.914,343.291 430.5,343.5C 431.134,341.228 432.468,339.561 434.5,338.5C 422.783,363.579 406.45,385.246 385.5,403.5C 385.062,403.565 384.728,403.399 384.5,403C 386.923,401.429 388.256,399.263 388.5,396.5C 387.448,396.351 386.448,396.517 385.5,397C 383.147,400.166 380.147,402.333 376.5,403.5C 399.803,383.864 417.803,360.198 430.5,332.5 Z"/></g>
<g><path style="opacity:1" fill="#1bad67" d="M 317.5,370.5 C 289.59,386.432 259.59,391.932 227.5,387C 213.188,384.674 199.521,380.34 186.5,374C 182.931,372.058 179.598,369.892 176.5,367.5C 175.065,366.015 175.232,364.682 177,363.5C 177.903,364.701 179.069,365.535 180.5,366C 183.946,366.661 187.279,367.495 190.5,368.5C 235.036,387.802 278.37,385.468 320.5,361.5C 321.695,361.322 322.862,360.989 324,360.5C 325.28,360.613 326.113,361.28 326.5,362.5C 322.371,364.039 319.371,366.706 317.5,370.5 Z"/></g>
<g><path style="opacity:1" fill="#1fac68" d="M 159.5,373.5 C 166.107,376.252 172.107,380.085 177.5,385C 176.696,386.771 175.529,388.271 174,389.5C 170.758,386.795 167.258,384.461 163.5,382.5C 162.354,383.145 161.354,383.978 160.5,385C 163.86,387.366 166.86,390.033 169.5,393C 169.046,394.622 168.046,395.788 166.5,396.5C 163.5,394.5 160.5,392.5 157.5,390.5C 156.618,391.76 155.618,392.926 154.5,394C 157.736,396.868 161.236,399.368 165,401.5C 165.3,403.894 164.3,405.561 162,406.5C 156.067,403.063 150.567,399.063 145.5,394.5C 150.435,387.615 155.102,380.615 159.5,373.5 Z"/></g>
<g><path style="opacity:1" fill="#1dad68" d="M 336.5,374.5 C 337.167,380.346 337.833,386.346 338.5,392.5C 339.646,391.855 340.646,391.022 341.5,390C 339.789,388.867 339.289,387.367 340,385.5C 341.512,384.743 342.846,383.743 344,382.5C 345.385,383.551 346.385,384.884 347,386.5C 349.584,383.532 351.584,383.865 353,387.5C 353.163,389.387 352.329,390.887 350.5,392C 354.614,395.465 353.947,397.965 348.5,399.5C 347.354,398.855 346.354,398.022 345.5,397C 344.5,396.333 343.5,396.333 342.5,397C 339.42,399.29 336.253,401.457 333,403.5C 331.005,400.703 330.172,397.537 330.5,394C 330.739,388.445 331.405,382.945 332.5,377.5C 333.901,376.479 335.235,375.479 336.5,374.5 Z"/></g>
<g><path style="opacity:1" fill="#1cad68" d="M 66.5,329.5 C 100.072,399 155.406,438.666 232.5,448.5C 234.48,450.105 236.813,451.272 239.5,452C 238.833,452.333 238.167,452.667 237.5,453C 232.201,452.808 226.867,452.641 221.5,452.5C 158.388,443.187 109.555,411.853 75,358.5C 70.3127,351.126 66.146,343.459 62.5,335.5C 64.3002,336.473 66.1335,337.473 68,338.5C 66.8778,335.77 66.3778,332.77 66.5,329.5 Z"/></g>
<g><path style="opacity:1" fill="#1dad68" d="M 181.5,389.5 C 188.692,388.766 194.358,391.266 198.5,397C 197.73,398.775 196.563,400.275 195,401.5C 193.127,399.291 190.96,397.458 188.5,396C 186.597,395.226 184.93,395.56 183.5,397C 186.667,400.167 189.833,403.333 193,406.5C 194.051,415.111 190.218,418.611 181.5,417C 176.81,415.475 173.143,412.641 170.5,408.5C 171.5,406.833 172.833,405.5 174.5,404.5C 176.984,407.669 180.151,410.002 184,411.5C 185.946,411.237 186.612,410.237 186,408.5C 183.521,405.931 180.854,403.598 178,401.5C 175.972,396.558 177.139,392.558 181.5,389.5 Z"/></g>
<g><path style="opacity:1" fill="#1dad67" d="M 202.5,396.5 C 209.814,398.329 217.148,400.162 224.5,402C 224.854,403.626 224.854,405.459 224.5,407.5C 221.412,406.932 218.412,406.932 215.5,407.5C 213.96,413.996 211.96,420.329 209.5,426.5C 207.289,425.877 205.289,424.877 203.5,423.5C 205.582,416.925 207.248,410.258 208.5,403.5C 206.139,403.326 203.806,402.993 201.5,402.5C 201.325,400.379 201.659,398.379 202.5,396.5 Z"/></g>
<g><path style="opacity:1" fill="#1dac67" d="M 285.5,398.5 C 293.933,397.629 299.1,401.295 301,409.5C 303.078,419.032 299.411,424.698 290,426.5C 281.789,424.442 277.622,419.109 277.5,410.5C 277.723,404.682 280.39,400.682 285.5,398.5 Z M 287.5,404.5 C 290.292,404.452 292.125,405.785 293,408.5C 295.058,412.22 294.891,415.72 292.5,419C 289.196,420.042 287.029,418.875 286,415.5C 283.614,411.295 284.114,407.629 287.5,404.5 Z"/></g>
<g><path style="opacity:1" fill="#1dac67" d="M 385.5,403.5 C 338.272,444.312 283.605,460.646 221.5,452.5C 226.867,452.641 232.201,452.808 237.5,453C 238.167,452.667 238.833,452.333 239.5,452C 236.813,451.272 234.48,450.105 232.5,448.5C 286.391,451.979 334.391,436.979 376.5,403.5C 380.147,402.333 383.147,400.166 385.5,397C 386.448,396.517 387.448,396.351 388.5,396.5C 388.256,399.263 386.923,401.429 384.5,403C 384.728,403.399 385.062,403.565 385.5,403.5 Z"/></g>
<g><path style="opacity:1" fill="#1eac69" d="M 310.5,389.5 C 319.112,388.28 322.945,391.946 322,400.5C 320.963,403.405 319.796,406.239 318.5,409C 321.521,408.582 324.355,407.415 327,405.5C 329.194,407.389 329.694,409.556 328.5,412C 322.583,414.795 316.583,417.295 310.5,419.5C 310.481,417.94 310.148,416.44 309.5,415C 312.37,409.394 314.204,403.561 315,397.5C 314.333,396.833 313.667,396.167 313,395.5C 310.03,396.637 307.864,398.637 306.5,401.5C 304.929,400.691 303.262,400.357 301.5,400.5C 301.264,397.774 302.097,395.441 304,393.5C 306.314,392.267 308.481,390.933 310.5,389.5 Z"/></g>
<g><path style="opacity:1" fill="#1dac67" d="M 256.5,403.5 C 260.182,403.335 263.848,403.501 267.5,404C 272.087,406.763 273.254,410.597 271,415.5C 268.833,418.333 266.667,421.167 264.5,424C 267.8,423.954 271.134,423.788 274.5,423.5C 274.5,425.5 274.5,427.5 274.5,429.5C 267.475,430.002 260.475,430.669 253.5,431.5C 253.338,429.473 253.505,427.473 254,425.5C 258.583,421.588 262.417,417.088 265.5,412C 262.235,408.677 259.068,408.843 256,412.5C 254.915,411.707 253.748,411.04 252.5,410.5C 251.417,409.635 251.251,408.635 252,407.5C 253.397,405.93 254.897,404.596 256.5,403.5 Z"/></g>
<g><path style="opacity:1" fill="#26aa69" d="M 226.5,421.5 C 231.708,421.369 233.375,423.702 231.5,428.5C 224.369,430.27 222.703,427.936 226.5,421.5 Z"/></g>
</svg>
